# xmcd CD database file
#
# Track frame offsets:
#	150
#	24540
#	59405
#	78902
#	90812
#	109452
#	128100
#	151272
#
# Disc length: 2294 seconds
#
# Revision: 1
# Processed by: cddbd v1.5.1PL0 Copyright (c) Steve Scherf et al.
# Submitted via: CDex 1.51
#
DISCID=5808f408
DTITLE=The Jazz Crusaders - Chile Con Soul (2003 Remaster)
DYEAR=1965
DGENRE=Jazz
TTITLE0=Agua Dulce (Sweetwater)
TTITLE1=Soul Bourgeoisie
TTITLE2=Ontem A Note
TTITLE3=Tough Talk
TTITLE4=Tacos
TTITLE5=Latin Bit
TTITLE6=The Breeze and I
TTITLE7=Dulzura
EXTD=YEAR: 1965
EXTT0=
EXTT1=
EXTT2=
EXTT3=
EXTT4=
EXTT5=
EXTT6=
EXTT7=
PLAYORDER=
